<svg fill="none" height="305" viewBox="0 0 1419 305" width="1419" xmlns="http://www.w3.org/2000/svg"><path d="m266.44 85.64c0 26.9-12.41 50.91-31.81 66.61l-228.53-129.76c-.89-.5-1.69-1.11-2.41-1.8-.19-.18-3.69-3.27-3.69-8.66 0-3.32 1.35-6.33 3.52-8.51 2.19-2.17 5.2-3.52 8.52-3.52h168.76c47.3 0 85.64 38.34 85.64 85.64z" fill="#18b4f4"/><path d="m266.44 218.85c0 47.3-38.34 85.64-85.64 85.64h-168.76c-5.89999 0-12.0299902-4.66-12.0299902-12.03 0-5.32 3.3500002-8.32 3.7100002-8.68l.02-.02c.71-.67 1.5-1.27 2.37-1.76l89.90999-51.05 138.61-78.7h.01c19.4 15.7 31.81 39.7 31.81 66.61z" fill="#fd6b3c"/><path d="m234.63 152.25h-.01l-138.6101 78.71-89.90995 51.05c-.87.49-1.66 1.09-2.37 1.76 33.02995-33.99 53.37005-80.38 53.37005-131.52s-20.35-97.5701-53.40005-131.5601c.72.69 1.52 1.29 2.41 1.8l228.53005 129.7601z" fill="#a97ff2"/><g fill="#fff"><path d="m453.78 111.66c39.53 0 61.86 31.57 61.86 69.82s-22.33 69.56-61.86 69.56c-20.53 0-36.19-8.21-44.92-22.07l-3.57 18.99h-24.66v-183.5796h30.54v67.8096c7.44-11.29 22.07-20.53 42.61-20.53zm-6.16 112.42c23.1 0 37.47-18.74 37.47-42.61s-14.37-42.86-37.47-42.86-37.47 18.48-37.47 42.86 14.12 42.61 37.47 42.61z"/><path d="m623.19 193.03v-78.29h30.54v76.75c0 34.14-15.66 59.55-58.78 59.55s-58.78-25.41-58.78-59.55v-76.75h30.55v78.29c0 20.79 9.75 31.06 28.23 31.06s28.24-10.27 28.24-31.06z"/><path d="m678.18 73.6802c0-11.87 8.36-20.23 20.23-20.23s19.96 8.36 19.96 20.23-8.36 19.69-19.96 19.69-20.23-8.09-20.23-19.69z"/><path d="m1223.11 73.6802c0-11.87 8.36-20.23 20.23-20.23s19.96 8.36 19.96 20.23-8.36 19.69-19.96 19.69-20.23-8.09-20.23-19.69z"/><path d="m1164.33 229.36c0-11.87 8.36-20.23 20.23-20.23s19.96 8.36 19.96 20.23-8.36 19.69-19.96 19.69-20.23-8.09-20.23-19.69z"/><path d="m713.54 114.74h-30.54v133.22h30.54z"/><path d="m744.09 247.96v-183.5796h30.54v183.5696h-30.54z"/><path d="m900.66 64.3801h30.54v183.5699h-24.66l-3.57-18.99c-8.47 13.86-24.13 22.07-44.92 22.07-39.27 0-61.6-31.57-61.6-69.56s22.33-69.82 61.6-69.82c20.79 0 35.16 9.24 42.61 20.53v-67.8099zm-36.19 74.2299c-23.1 0-37.48 18.48-37.48 42.86s14.37 42.61 37.48 42.61 37.47-18.74 37.47-42.61-14.12-42.86-37.47-42.86z"/><path d="m1080.33 211.51c-9.5 23.87-31.57 39.53-60.58 39.53-40.3 0-66.48-30.03-66.48-69.82s26.69-69.56 66.22-69.56 65.45 30.03 65.45 69.05c0 4.88-.21 6.72-.82 9.5h-100.83c2.31 21.05 15.91 34.65 37.22 34.65 14.63 0 26.7-7.19 32.34-20.53l27.47 7.19zm-96.51-43.89h70.84c-2.57-18.48-15.4-31.06-35.17-31.06s-32.6 12.83-35.68 31.06z"/><path d="m1178.39 142.2s-3.59-.51-6.93-.51c-21.56 0-34.39 11.29-34.39 36.96v69.3h-30.54v-133.21h24.66l3.57 18.48c4.88-8.47 16.17-19.76 39.27-19.76 1.28 0 4.36.26 4.36.26v28.49z"/><path d="m1258.47 114.74h-30.54v133.22h30.54z"/><path d="m1280.29 181.48c0-37.48 26.69-69.82 69.05-69.82s69.3 32.34 69.3 69.82-26.69 69.56-69.3 69.56-69.05-32.09-69.05-69.56zm69.05 42.6c22.33 0 38.76-16.94 38.76-42.61s-16.43-42.86-38.76-42.86-38.5 16.94-38.5 42.86 16.43 42.61 38.5 42.61z"/></g></svg>